<svg width="216" height="29" viewBox="0 0 216 29" fill="none" xmlns="http://www.w3.org/2000/svg">
<path d="M0.599609 27.7059V0.889346H12.4575C17.4856 0.889346 20.7958 4.28331 20.7958 8.8505C20.7958 13.4177 17.4856 16.8535 12.4575 16.8535H4.32878V27.7059H0.599609ZM4.32878 13.5434H12.6251C15.2649 13.5434 17.0247 11.6997 17.0247 8.8505C17.0247 6.04314 15.2649 4.15761 12.6251 4.15761H4.32878V13.5434Z" fill="#B0B0B0"/>
<path d="M25.7902 27.7059L34.9245 0.889346H42.76L51.8944 27.7059H48.0395L45.3159 19.7028H32.3267L29.6031 27.7059H25.7902ZM33.4999 16.3088H44.1427L40.0783 4.40901H37.5643L33.4999 16.3088Z" fill="#B0B0B0"/>
<path d="M61.1921 27.7059V0.889346H67.8124L79.9217 24.1024H80.5083V0.889346H84.1537V27.7059H77.5334L65.4241 4.49282H64.8793V27.7059H61.1921Z" fill="#B0B0B0"/>
<path d="M93.5025 27.7059L102.637 0.889346H110.472L119.607 27.7059H115.752L113.028 19.7028H100.039L97.3155 27.7059H93.5025ZM101.212 16.3088H111.855L107.791 4.40901H105.277L101.212 16.3088Z" fill="#B0B0B0"/>
<path d="M139.445 28.2925C131.735 28.2925 126.204 23.5577 126.204 14.2976C126.204 5.95934 131.526 0.302734 139.655 0.302734C146.568 0.302734 151.093 4.07381 151.638 10.4008H147.909C146.987 6.00124 144.222 3.9062 141.456 3.9062H137.769C133.705 3.9062 130.017 8.43149 130.017 14.2976C130.017 20.1637 133.705 24.689 137.769 24.689H141.456C144.222 24.689 147.071 22.594 147.993 18.1944H151.722C151.177 24.3538 146.568 28.2925 139.445 28.2925Z" fill="#B0B0B0"/>
<path d="M162.27 27.7059V0.889346H181.628V4.28331H165.999V12.2864H180.58V15.5965H165.999V24.3119H181.837V27.7059H162.27Z" fill="#B0B0B0"/>
<path d="M189.547 27.7059L198.681 0.889346H206.517L215.651 27.7059H211.796L209.073 19.7028H196.083L193.36 27.7059H189.547ZM197.257 16.3088H207.9L203.835 4.40901H201.321L197.257 16.3088Z" fill="#B0B0B0"/>
</svg>
