<svg width="418" height="34" viewBox="0 0 418 34" fill="none" xmlns="http://www.w3.org/2000/svg">
<path d="M0.96 27L9.68 1.4H17.16L25.88 27H22.2L19.6 19.36H7.2L4.6 27H0.96ZM8.32 16.12H18.48L14.6 4.76H12.2L8.32 16.12ZM38.4406 27.56C32.6006 27.56 28.6006 23.44 28.6006 17.48C28.6006 11.52 32.6006 7.44 38.4406 7.44C42.9606 7.44 46.6406 9.72 47.3606 14.72H43.9206C43.4806 11.92 41.4406 10.68 39.4406 10.68H37.2006C34.4406 10.68 32.0806 13.72 32.0806 17.48C32.0806 21.24 34.4406 24.32 37.2006 24.32H39.4406C41.4406 24.32 43.5206 23.04 43.9206 20.24H47.3606C46.6406 25.24 42.9606 27.56 38.4406 27.56ZM61.0578 27.56C55.2178 27.56 51.2178 23.44 51.2178 17.48C51.2178 11.52 55.2178 7.44 61.0578 7.44C65.5778 7.44 69.2578 9.72 69.9778 14.72H66.5378C66.0978 11.92 64.0578 10.68 62.0578 10.68H59.8178C57.0578 10.68 54.6978 13.72 54.6978 17.48C54.6978 21.24 57.0578 24.32 59.8178 24.32H62.0578C64.0578 24.32 66.1378 23.04 66.5378 20.24H69.9778C69.2578 25.24 65.5778 27.56 61.0578 27.56ZM83.635 27.56C77.355 27.56 73.835 23.32 73.835 17.52C73.835 11.4 77.795 7.44 83.795 7.44C89.475 7.44 93.035 10.92 93.035 17.88V18.56H77.315C77.675 21.84 79.715 24.32 82.835 24.32H84.675C87.035 24.32 88.555 22.88 89.115 21.04H92.555C91.955 24.8 88.995 27.56 83.635 27.56ZM77.475 15.6H89.515C89.275 12.52 87.195 10.68 84.915 10.68H82.475C80.035 10.68 78.035 12.64 77.475 15.6ZM98.0419 33.8V8H101.402V10.68C102.922 8.76 105.202 7.44 108.162 7.44C113.762 7.44 117.562 11.52 117.562 17.52C117.562 23.48 113.602 27.56 108.002 27.56C105.082 27.56 102.762 26.32 101.522 24.88V33.8H98.0419ZM101.522 19.28C101.522 22.04 103.442 24.28 106.042 24.28H108.922C111.762 24.28 114.042 21.24 114.042 17.52C114.042 13.76 111.762 10.72 108.922 10.72H106.042C103.442 10.72 101.522 12.92 101.522 15.68V19.28ZM128.904 27C125.864 27 124.224 25.44 124.224 22.76V11.2H120.304V8H124.224V2.64H127.704V8H132.904V11.2H127.704V21.76C127.704 23.04 128.104 23.72 129.584 23.72H133.104V27H128.904ZM146.792 27V8H150.152V10.8C151.512 8.56 153.672 7.44 156.792 7.44C161.792 7.44 164.472 10.32 164.472 15.2V27H161.032V15.68C161.032 12.6 159.432 10.76 157.232 10.76H154.592C152.272 10.76 150.272 12.84 150.272 15.68V27H146.792ZM179.502 27.56C173.582 27.56 169.382 23.32 169.382 17.52C169.382 11.72 173.582 7.44 179.502 7.44C185.462 7.44 189.662 11.68 189.662 17.52C189.662 23.36 185.462 27.56 179.502 27.56ZM172.862 17.52C172.862 21.2 175.422 24.28 178.222 24.28H180.822C183.662 24.28 186.182 21.24 186.182 17.52C186.182 13.8 183.662 10.72 180.822 10.72H178.222C175.422 10.72 172.862 13.84 172.862 17.52ZM210.55 27.56C205.23 27.56 202.55 25.44 202.39 21.28H205.75C205.95 23.16 207.11 24.4 209.43 24.4H212.27C214.31 24.4 215.27 23.32 215.27 21.88C215.27 20.56 214.51 19.6 212.59 19.36L208.07 18.72C204.43 18.24 202.87 16 202.87 13.24C202.87 9.68 205.39 7.44 210.59 7.44C215.35 7.44 218.15 9.4 218.31 13.8H214.95C214.79 11.92 214.03 10.6 211.79 10.6H209.15C207.11 10.6 206.23 11.76 206.23 13.08C206.23 14.4 207.07 15.4 209.03 15.64L213.55 16.28C217.27 16.76 218.63 18.84 218.63 21.56C218.63 25.32 216.23 27.56 210.55 27.56ZM230.748 27.56C225.908 27.56 223.188 24.68 223.188 19.8V8H226.668V19.32C226.668 22.4 228.268 24.24 230.308 24.24H232.868C235.068 24.24 237.068 22.16 237.068 19.32V8H240.508V27H237.148V24.44C235.948 26.44 233.788 27.56 230.748 27.56ZM256.473 27.56C253.553 27.56 251.553 26.24 250.113 24.72V27H246.753V0.599999H250.233V10.44C251.473 8.8 253.753 7.44 256.713 7.44C262.313 7.44 266.273 11.52 266.273 17.48C266.273 23.48 262.233 27.56 256.473 27.56ZM250.233 19.28C250.233 22.04 252.153 24.28 254.753 24.28H257.633C260.473 24.28 262.753 21.24 262.753 17.48C262.753 13.76 260.473 10.72 257.633 10.72H254.753C252.153 10.72 250.233 12.92 250.233 15.68V19.28ZM278.362 27.56C273.042 27.56 270.362 25.44 270.202 21.28H273.562C273.762 23.16 274.922 24.4 277.242 24.4H280.082C282.122 24.4 283.082 23.32 283.082 21.88C283.082 20.56 282.322 19.6 280.402 19.36L275.882 18.72C272.242 18.24 270.682 16 270.682 13.24C270.682 9.68 273.202 7.44 278.402 7.44C283.162 7.44 285.962 9.4 286.122 13.8H282.762C282.602 11.92 281.842 10.6 279.602 10.6H276.962C274.922 10.6 274.042 11.76 274.042 13.08C274.042 14.4 274.882 15.4 276.842 15.64L281.362 16.28C285.082 16.76 286.442 18.84 286.442 21.56C286.442 25.32 284.042 27.56 278.362 27.56ZM297.889 27C294.849 27 293.209 25.44 293.209 22.76V11.2H289.289V8H293.209V2.64H296.689V8H301.889V11.2H296.689V21.76C296.689 23.04 297.089 23.72 298.569 23.72H302.089V27H297.889ZM307.387 27V11.24H304.987V8H310.867V27H307.387ZM306.747 4.72V0.599999H310.987V4.72H306.747ZM323.709 27C320.669 27 319.029 25.44 319.029 22.76V11.2H315.109V8H319.029V2.64H322.509V8H327.709V11.2H322.509V21.76C322.509 23.04 322.909 23.72 324.389 23.72H327.909V27H323.709ZM339.928 27.56C335.088 27.56 332.368 24.68 332.368 19.8V8H335.848V19.32C335.848 22.4 337.448 24.24 339.488 24.24H342.048C344.248 24.24 346.248 22.16 346.248 19.32V8H349.688V27H346.328V24.44C345.128 26.44 342.968 27.56 339.928 27.56ZM362.733 27C359.693 27 358.053 25.44 358.053 22.76V11.2H354.132V8H358.053V2.64H361.533V8H366.733V11.2H361.533V21.76C361.533 23.04 361.933 23.72 363.413 23.72H366.933V27H362.733ZM380.119 27.56C373.839 27.56 370.319 23.32 370.319 17.52C370.319 11.4 374.279 7.44 380.279 7.44C385.959 7.44 389.519 10.92 389.519 17.88V18.56H373.799C374.159 21.84 376.199 24.32 379.319 24.32H381.159C383.519 24.32 385.039 22.88 385.599 21.04H389.039C388.439 24.8 385.479 27.56 380.119 27.56ZM373.959 15.6H385.999C385.759 12.52 383.679 10.68 381.399 10.68H378.959C376.519 10.68 374.519 12.64 373.959 15.6ZM401.526 27.56C396.206 27.56 393.526 25.44 393.366 21.28H396.726C396.926 23.16 398.086 24.4 400.406 24.4H403.246C405.286 24.4 406.246 23.32 406.246 21.88C406.246 20.56 405.486 19.6 403.566 19.36L399.046 18.72C395.406 18.24 393.846 16 393.846 13.24C393.846 9.68 396.366 7.44 401.566 7.44C406.326 7.44 409.126 9.4 409.286 13.8H405.926C405.766 11.92 405.006 10.6 402.766 10.6H400.126C398.086 10.6 397.206 11.76 397.206 13.08C397.206 14.4 398.046 15.4 400.006 15.64L404.526 16.28C408.246 16.76 409.606 18.84 409.606 21.56C409.606 25.32 407.206 27.56 401.526 27.56ZM413.524 27V22.96H417.564V27H413.524Z" fill="#B0B0B0"/>
</svg>
